<?xml version="1.0" encoding="utf-8"?>
<!-- Generator: Adobe Illustrator 23.0.2, SVG Export Plug-In . SVG Version: 6.00 Build 0)  -->
<svg version="1.1" id="Capa_1" xmlns="http://www.w3.org/2000/svg" xmlns:xlink="http://www.w3.org/1999/xlink" x="0px" y="0px"
	 viewBox="0 0 920.9 746.9" style="enable-background:new 0 0 920.9 746.9;" xml:space="preserve">
<style type="text/css">
	.st0{fill:#FFFFFF;}
</style>
<g>
	<path class="st0" d="M708.2,35.7V16.4c0-9.7-7.3-15.6-18.3-15.8c0,0-44.3-2.1-112.4,6S454.3,34.8,454.3,34.8S399.1,15.7,330.9,6.5
		s-112.4-6-112.4-6c-9.3,0.2-18.3,6.1-18.3,15.8v19.4c-29.6,0.4-53.5,24.6-53.5,54.3v276.2c0,30,24.3,54.3,54.3,54.3h200.6v69.1
		h-92.1c-5.7,0-10.8,2.3-14.5,6s-6,8.9-6,14.6c0,11.3,9.9,20.5,21.2,20.5H599c5.7,0,10.8-2.3,14.5-6s6-8.9,6-14.6
		c0-11.3-9.9-20.5-21.2-20.5h-91.5v-69.1h200.6c30,0,54.3-24.3,54.3-54.3V90C761.7,60.3,737.9,36.2,708.2,35.7z M445.1,381.1
		c0,0-37.4-17.4-114.2-28c-76.8-10.7-109.7-6.6-109.7-6.6c-2.6-0.4-4.6-2.7-4.6-5.3V25.8c0-3.4,1.2-4.3,6.5-5.6
		c0,0,46.5-3.8,107.8,4.8c61.2,8.5,114.2,26.3,114.2,26.3V381.1z M686.4,391c-2.3,2.3-5.4,3.7-8.9,3.7h-31.4
		c-7,0-12.6-5.6-12.6-12.6c0-3.5,1.4-6.6,3.7-8.9s5.4-3.7,8.9-3.7h31.5c7,0,12.6,5.6,12.6,12.6C690.1,385.6,688.7,388.7,686.4,391z
		 M691.8,341.1c0,2.7-1.9,4.9-4.6,5.3c0,0-32.9-5.1-109.7,6.6c-76.8,11.8-114.2,28-114.2,28V51.3c0,0,39.2-16,114.2-26.4
		c75.1-10.4,107.8-4.8,107.8-4.8c5.3,1.3,6.5,2.2,6.5,5.6V341.1L691.8,341.1z"/>
	<g>
		<path class="st0" d="M666.6,626.6V728c0,9.8-8,17.8-17.8,17.8l0,0c-4.9,0-9.6-2.2-12.7-6L574,664.1v66.3c0,8.5-6.9,15.4-15.4,15.4
			l0,0c-8.5,0-15.4-6.9-15.4-15.4V625.6c0-7.9,6.4-14.4,14.4-14.4h3.6c4.9,0,9.6,2.2,12.7,6l61.9,75.6v-66.3
			c0-8.5,6.9-15.4,15.4-15.4l0,0C659.8,611.3,666.6,618.1,666.6,626.6z"/>
		<path class="st0" d="M794,732.9v0.8c0,6.7-5.4,12.1-12.1,12.1h-76.6c-8.5,0-15.4-6.9-15.4-15.4V626.7c0-8.5,6.9-15.4,15.4-15.4
			h74.1c6.7,0,12.1,5.4,12.1,12.1v0.8c0,6.7-5.4,12.1-12.1,12.1h-58.6v29.2h50.3c6.7,0,12.1,5.4,12.1,12.1l0,0
			c0,6.7-5.4,12.1-12.1,12.1h-50.3v31.1h61.1C788.6,720.8,794,726.2,794,732.9z"/>
		<path class="st0" d="M846.7,636.6h-30.3c-7,0-12.7-5.7-12.7-12.7l0,0c0-7,5.7-12.7,12.7-12.7h91.8c7,0,12.7,5.7,12.7,12.7l0,0
			c0,7-5.7,12.7-12.7,12.7h-30.3V733c0,7-5.7,12.7-12.7,12.7h-5.8c-7,0-12.7-5.7-12.7-12.7V636.6L846.7,636.6z"/>
		<path class="st0" d="M510.6,744.2c-4.1,0.9-8.2,0-11.5-2.1c-2.4-1.6-4.3-3.9-5.4-6.7l-8.1-19.7l-9.8-23.6L459.2,652
			c-1.7-4.2-7.7-4.2-9.5,0l-16.6,40.1h24c6.2,0,11.7,4.7,12.2,10.9c0.3,3.6-1.1,6.9-3.4,9.3c-2.1,2.1-5.1,3.5-8.4,3.5H423l-8.2,19.9
			c-2.2,5.4-7.5,8.9-13.4,8.9c-8.3,0-14.5-6.8-14.5-14.4c0-1.9,0.4-4,1.3-5.9l11.9-26.8l13.5-30.3l19.2-43.1
			c3.8-8.5,12.3-14,21.6-14c4.6,0,9.1,1.4,12.9,3.8c3.8,2.4,6.8,5.9,8.7,10.2l44.3,99C524.6,732.1,520.2,742.1,510.6,744.2z"/>
		<path class="st0" d="M253.5,614.6c-2.7-2.7-6.4-4.4-10.6-4.5c-8.6-0.2-15.6,7.3-15.6,15.9v58.3c0,12.4-2.6,21.6-7.7,27.4
			c-5.1,5.8-12.5,8.8-22.3,8.8c-20,0-30-12-30-36.1v-58.8c0-7.2-5-13.3-11.7-14.9c-1.2-0.3-2.4-0.5-3.7-0.5h-0.4
			c-8.5,0-15.4,6.9-15.4,15.4v59.9c0,19.7,5.3,34.9,16.1,45.5c1.1,1.1,2.2,2.1,3.4,3c10.4,8.6,24.2,12.9,41.5,12.9
			c19.2,0,34.2-5.3,44.9-16c10.7-10.6,16-25.8,16-45.5v-59.9C258,621.2,256.3,617.4,253.5,614.6z"/>
		<path class="st0" d="M361.8,719.2h-54.3v-96.5c0-7-5.7-12.7-12.7-12.7H289c-7,0-12.7,5.7-12.7,12.7v105.6c0,9,7.3,16.3,16.3,16.3
			h69.6c3.5,0,6.7-1.4,9-3.7c2.5-2.5,4-6,3.7-9.9C374.5,724.3,368.6,719.2,361.8,719.2z"/>
		<path class="st0" d="M1.1,727.3L50.5,618c5.2-11.6,21.7-11.6,26.9,0l49.4,109.3c4.8,10.5-6.1,21.3-16.6,16.5l-43.7-20.2
			c-1.6-0.8-3.5-0.8-5.1,0l-43.7,20.2C7.3,748.6-3.6,737.9,1.1,727.3z"/>
	</g>
</g>
</svg>
